<svg width="281" height="121" viewBox="0 0 281 121" fill="none" xmlns="http://www.w3.org/2000/svg">
<path d="M116 0C118.761 0 121 2.23858 121 5V116C121 118.761 118.761 121 116 121H5C2.23858 121 0 118.761 0 116V5C0 2.23858 2.23858 0 5 0H116ZM60.4951 3.95312C29.268 3.95325 3.95325 29.268 3.95312 60.4951C3.95312 91.7224 29.2679 117.037 60.4951 117.037C91.7224 117.037 117.037 91.7224 117.037 60.4951C117.037 29.2679 91.7224 3.95312 60.4951 3.95312Z" fill="#0D1C10"/>
<path d="M209.315 33.4297C211.287 33.4297 212.993 33.7626 214.432 34.4287C215.897 35.0683 217.03 35.9482 217.829 37.0674C218.629 38.1865 219.028 39.4788 219.028 40.9443C219.028 42.2501 218.655 43.4494 217.909 44.542C217.163 45.6079 216.231 46.4074 215.111 46.9404C215.911 47.1003 216.697 47.4341 217.47 47.9404C218.242 48.4467 218.882 49.1392 219.389 50.0186C219.922 50.898 220.188 51.9911 220.188 53.2969C220.188 54.7891 219.762 56.1349 218.909 57.334C218.056 58.5331 216.83 59.4924 215.231 60.2119C213.659 60.9048 211.793 61.251 209.635 61.251C208.542 61.251 207.396 61.1984 206.197 61.0918C205.025 61.0119 203.892 60.9047 202.8 60.7715C202.167 60.6789 201.574 60.582 201.021 60.4805C200.354 60.3576 199.882 59.7679 199.882 59.0889V35.5781C199.882 34.9055 200.345 34.319 201.006 34.1924C202.072 33.9883 203.203 33.8276 204.398 33.71C206.051 33.5234 207.69 33.4297 209.315 33.4297ZM143.152 34.0693C143.95 34.0693 144.598 34.7166 144.598 35.5146V45.3418H159.867V35.5146C159.867 34.7166 160.515 34.0694 161.312 34.0693H162.021C162.818 34.0695 163.465 34.7167 163.465 35.5146V59.4062C163.465 60.2042 162.818 60.8514 162.021 60.8516H161.312C160.515 60.8515 159.867 60.2043 159.867 59.4062V48.7393H144.598V59.4062C144.598 60.2043 143.95 60.8516 143.152 60.8516H142.445C141.647 60.8516 141 60.2043 141 59.4062V35.5146C141 34.7166 141.647 34.0693 142.445 34.0693H143.152ZM181.673 34.0693C182.221 34.0693 182.721 34.3869 182.953 34.8838L194.124 58.7949C194.572 59.753 193.872 60.8516 192.814 60.8516H191.714C191.139 60.8516 190.618 60.511 190.389 59.9844L187.977 54.4561H175.407L172.96 59.9912C172.729 60.5142 172.211 60.8514 171.639 60.8516H170.532C169.475 60.8516 168.775 59.753 169.223 58.7949L180.394 34.8838C180.626 34.387 181.124 34.0695 181.673 34.0693ZM227.637 34.0693C228.435 34.0694 229.081 34.7167 229.081 35.5146V59.4062C229.081 60.2042 228.435 60.8515 227.637 60.8516H226.929C226.131 60.8515 225.484 60.2042 225.484 59.4062V35.5146C225.484 34.7167 226.131 34.0694 226.929 34.0693H227.637ZM255.194 34.0693C255.992 34.0693 256.64 34.7166 256.64 35.5146V36.0225C256.639 36.8203 255.992 37.4668 255.194 37.4668H247.406V59.4062C247.406 60.2043 246.759 60.8515 245.961 60.8516H245.253C244.455 60.8514 243.809 60.2042 243.809 59.4062V37.4668H236.02C235.222 37.4668 234.574 36.8203 234.574 36.0225V35.5146C234.574 34.7166 235.221 34.0693 236.02 34.0693H255.194ZM268.412 34.0693C268.961 34.0694 269.46 34.3868 269.692 34.8838L280.862 58.7949C281.31 59.7528 280.611 60.8513 279.554 60.8516H278.452C277.878 60.8516 277.358 60.511 277.128 59.9844L274.716 54.4561H262.146L259.698 59.9912C259.467 60.5143 258.949 60.8515 258.377 60.8516H257.271C256.213 60.8514 255.514 59.7529 255.962 58.7949L267.132 34.8838C267.364 34.3868 267.863 34.0693 268.412 34.0693ZM203.479 57.374C204.118 57.4806 204.811 57.5734 205.558 57.6533C206.33 57.7333 207.063 57.7868 207.756 57.8135C208.475 57.8401 209.075 57.8535 209.555 57.8535C211.553 57.8535 213.206 57.4404 214.512 56.6143C215.844 55.7882 216.511 54.6825 216.511 53.2969C216.511 51.8312 215.858 50.7381 214.552 50.0186C213.273 49.2724 211.7 48.8994 209.835 48.8994H203.479V57.374ZM263.647 51.0586H273.233L268.472 40.1455L263.647 51.0586ZM176.909 51.0586H186.494L181.733 40.1455L176.909 51.0586ZM209.075 36.8271C207.956 36.8272 206.943 36.8673 206.037 36.9473C205.158 37.0272 204.305 37.1477 203.479 37.3076V45.7012H209.755C211.567 45.7012 212.953 45.2488 213.912 44.3428C214.871 43.4101 215.352 42.3304 215.352 41.1045C215.352 40.1452 215.058 39.359 214.472 38.7461C213.885 38.1066 213.113 37.6274 212.153 37.3076C211.221 36.9878 210.194 36.8271 209.075 36.8271Z" fill="black"/>
</svg>
